<?xml version="1.0" encoding="UTF-8" standalone="no"?>
<!-- Created with Inkscape (http://www.inkscape.org/) -->
<svg xmlns:dc="http://purl.org/dc/elements/1.1/" xmlns:cc="http://web.resource.org/cc/" xmlns:rdf="http://www.w3.org/1999/02/22-rdf-syntax-ns#" xmlns:svg="http://www.w3.org/2000/svg" xmlns="http://www.w3.org/2000/svg" xmlns:xlink="http://www.w3.org/1999/xlink" xmlns:sodipodi="http://sodipodi.sourceforge.net/DTD/sodipodi-0.dtd" xmlns:inkscape="http://www.inkscape.org/namespaces/inkscape" width="344" height="269" id="svg2" sodipodi:version="0.32" inkscape:version="0.44.1" version="1.0" sodipodi:docbase="C:\DOCUME~1\JUANC~1.TEL\Desktop" sodipodi:docname="OPTICA~2.SVG">
  <defs id="defs4">
    <linearGradient id="linearGradient2899">
      <stop style="stop-color:black;stop-opacity:0.49803922;" offset="0" id="stop2901"/>
      <stop style="stop-color:black;stop-opacity:0.49803922;" offset="0.58928573" id="stop2920"/>
      <stop id="stop2923" offset="1" style="stop-color:black;stop-opacity:0;"/>
      <stop style="stop-color:black;stop-opacity:0;" offset="1" id="stop2903"/>
    </linearGradient>
    <linearGradient id="linearGradient2887">
      <stop style="stop-color:#0d451c;stop-opacity:1;" offset="0" id="stop2889"/>
      <stop style="stop-color:white;stop-opacity:1;" offset="1" id="stop2891"/>
    </linearGradient>
    <linearGradient id="linearGradient2818">
      <stop style="stop-color:#4d4d4d;stop-opacity:0;" offset="0" id="stop2820"/>
      <stop id="stop2828" offset="0" style="stop-color:#4d4d4d;stop-opacity:0.49803922;"/>
      <stop style="stop-color:#4d4d4d;stop-opacity:0;" offset="1" id="stop2822"/>
    </linearGradient>
    <linearGradient inkscape:collect="always" xlink:href="#linearGradient2887" id="linearGradient2893" x1="223.6581" y1="65.484375" x2="335.5" y2="65.484375" gradientUnits="userSpaceOnUse"/>
    <radialGradient inkscape:collect="always" xlink:href="#linearGradient2899" id="radialGradient2905" cx="203.67354" cy="198.19115" fx="203.67354" fy="198.19115" r="159.58038" gradientTransform="matrix(-2.151656,-0.263655,6.244119e-2,-0.334828,629.5337,299.1919)" gradientUnits="userSpaceOnUse"/>
    <radialGradient inkscape:collect="always" xlink:href="#linearGradient2899" id="radialGradient2918" cx="-87.758316" cy="200.79317" fx="-87.758316" fy="200.79317" r="223.67969" gradientTransform="matrix(-2.105996,-0.190583,1.985401e-2,-0.245027,42.65154,213.0894)" gradientUnits="userSpaceOnUse"/>
    <radialGradient inkscape:collect="always" xlink:href="#linearGradient2899" id="radialGradient2936" gradientUnits="userSpaceOnUse" gradientTransform="matrix(-2.105996,-0.190583,1.985401e-2,-0.245027,42.65154,213.0894)" cx="-35.016014" cy="199.00711" fx="-35.016014" fy="199.00711" r="223.67969"/>
  </defs>
  <sodipodi:namedview id="base" pagecolor="#ffffff" bordercolor="#666666" borderopacity="1.0" gridtolerance="10000" guidetolerance="10" objecttolerance="10" inkscape:pageopacity="0.0" inkscape:pageshadow="2" inkscape:zoom="1.4142136" inkscape:cx="179.43828" inkscape:cy="120.12463" inkscape:document-units="px" inkscape:current-layer="layer2" inkscape:window-width="853" inkscape:window-height="569" inkscape:window-x="291" inkscape:window-y="15" showguides="true" inkscape:guide-bbox="true"/>
  <metadata id="metadata7">
    <rdf:RDF>
      <cc:Work rdf:about="">
        <dc:format>image/svg+xml</dc:format>
        <dc:type rdf:resource="http://purl.org/dc/dcmitype/StillImage"/>
      </cc:Work>
    </rdf:RDF>
  </metadata>
  <g inkscape:groupmode="layer" id="layer2" inkscape:label="mesa" style="display:inline">
    <path style="opacity:1;fill:#dfdfdf;fill-opacity:1;stroke:none;stroke-width:1;stroke-miterlimit:4;stroke-dasharray:4, 4;stroke-dashoffset:0;stroke-opacity:1" d="M 74.377579,8.8038617 L 343.99662,63.267613 L 345.62825,109.52663 L 217.73283,262.19488 L -1.0119598,213.05324 L -1.021768,83.978163 L 74.377579,8.8038617 z " id="rect1902" sodipodi:nodetypes="ccccccc"/>
    <path style="opacity:1;fill:#707070;fill-opacity:1;fill-rule:evenodd;stroke:none;stroke-width:1px;stroke-linecap:butt;stroke-linejoin:miter;stroke-opacity:1" d="M 135.41095,20.098413 L 103.06081,54.216315 L 162.98811,67.651344 L 194.63115,33.356665 L 135.41095,20.098413 z " id="path1907"/>
    <path style="opacity:1;fill:#707070;fill-opacity:1;fill-rule:evenodd;stroke:none;stroke-width:1px;stroke-linecap:butt;stroke-linejoin:miter;stroke-opacity:1" d="M 164.5791,68.004897 L 130.81475,103.89057 L 191.97949,117.85593 L 207.15922,98.923186 L 207.52528,78.125973 L 164.5791,68.004897 z " id="path1909" sodipodi:nodetypes="cccccc"/>
    <path style="opacity:1;fill:#707070;fill-opacity:1;fill-rule:evenodd;stroke:none;stroke-width:1px;stroke-linecap:butt;stroke-linejoin:miter;stroke-opacity:1" d="M 42.072858,41.930334 L 9.7227174,76.048235 L 68.412581,90.720702 L 102.00016,54.304703 L 42.072858,41.930334 z " id="path1911" sodipodi:nodetypes="ccccc"/>
    <path style="opacity:1;fill:#707070;fill-opacity:1;fill-rule:evenodd;stroke:none;stroke-width:1px;stroke-linecap:butt;stroke-linejoin:miter;stroke-opacity:1" d="M 68.235808,91.074256 L 33.941124,126.4296 L 95.459415,140.57172 L 129.93087,104.33251 L 68.235808,91.074256 z " id="path1913" sodipodi:nodetypes="ccccc"/>
    <path style="opacity:1;fill:#707070;fill-opacity:1;fill-rule:evenodd;stroke:none;stroke-width:1px;stroke-linecap:butt;stroke-linejoin:miter;stroke-opacity:1" d="M 191.75,117.5 L 253.5,131.75 L 221,169.25 L 157.5,154.75 L 191.75,117.5 z " id="path1915"/>
    <path style="opacity:1;fill:#727272;fill-opacity:1;fill-rule:evenodd;stroke:none;stroke-width:1px;stroke-linecap:butt;stroke-linejoin:miter;stroke-opacity:1" d="M 220.75,169 L 283.75,184.25 L 251.5,221.5 L 187.25,207.5 L 220.75,169 z " id="path1917"/>
    <path style="opacity:1;fill:#707070;fill-opacity:1;fill-rule:evenodd;stroke:none;stroke-width:1px;stroke-linecap:butt;stroke-linejoin:miter;stroke-opacity:1" d="M 185.75,208 L 152.45711,247.63388 L 88.512563,233.19454 L 124.5,193.25 L 185.75,208 z " id="path1919" sodipodi:nodetypes="ccccc"/>
    <path style="opacity:1;fill:#707070;fill-opacity:1;fill-rule:evenodd;stroke:none;stroke-width:1px;stroke-linecap:butt;stroke-linejoin:miter;stroke-opacity:1" d="M 158,154.25 L 123.75,193 L 61,177.75 L 96,140.5 L 158,154.25 z " id="path1921"/>
    <path style="opacity:1;fill:#707070;fill-opacity:1;fill-rule:evenodd;stroke:none;stroke-width:1px;stroke-linecap:butt;stroke-linejoin:miter;stroke-opacity:1" d="M -0.60355339,213.22487 L 24.5,218.97487 L 60.75,178.25 L -0.5,164.75 L -0.60355339,213.22487 z " id="path1923" sodipodi:nodetypes="ccccc"/>
    <path style="opacity:1;fill:#707070;fill-opacity:1;fill-rule:evenodd;stroke:none;stroke-width:1px;stroke-linecap:butt;stroke-linejoin:miter;stroke-opacity:1" d="M 0,161.75 L 33.5,127.5 L -0.5,119 L 0,161.75 z " id="path1925"/>
    <path style="opacity:1;fill:#707070;fill-opacity:1;fill-rule:evenodd;stroke:none;stroke-width:1px;stroke-linecap:butt;stroke-linejoin:miter;stroke-opacity:1" d="M 316,145.25 L 254,131.25 C 281.52615,131.6458 313.80527,133.6616 334.13782,106.51041 L 345.75,108.75 L 316,145.25 z " id="path1927" sodipodi:nodetypes="ccccc"/>
    <path style="fill:#979797;fill-opacity:1;fill-rule:evenodd;stroke:none;stroke-width:1px;stroke-linecap:butt;stroke-linejoin:miter;stroke-opacity:1" d="M 251.25,221.5 L 251.75,255.25 L 284.25,216.25 L 283.25,184 L 251.25,221.5 z " id="path2939"/>
    <path style="fill:#979797;fill-opacity:1;fill-rule:evenodd;stroke:none;stroke-width:1px;stroke-linecap:butt;stroke-linejoin:miter;stroke-opacity:1;display:inline" d="M 316,145.1875 L 317,179.125 L 344.75,145.375 L 345,108.625 L 316,145.1875 z " id="path2941" sodipodi:nodetypes="ccccc"/>
    <path style="fill:#e8e8e8;fill-opacity:1;fill-rule:evenodd;stroke:none;stroke-width:1px;stroke-linecap:butt;stroke-linejoin:miter;stroke-opacity:1" d="M 316.78384,179.19744 L 284.4337,216.14377 L 283.01949,183.79363 L 315.72318,144.90276 L 316.78384,179.19744 z " id="path2943"/>
    <path style="fill:#e7e7e7;fill-opacity:1;fill-rule:evenodd;stroke:none;stroke-width:1px;stroke-linecap:butt;stroke-linejoin:miter;stroke-opacity:1" d="M 250.84613,222.33095 L 251.55324,255.56497 L 238.82532,269 L 217.43534,269.53033 L 217.25856,262.10571 L 250.84613,222.33095 z " id="path2945"/>
    <path style="fill:#bcbcbc;fill-opacity:1;fill-rule:evenodd;stroke:none;stroke-width:1px;stroke-linecap:butt;stroke-linejoin:miter;stroke-opacity:1" d="M 152.55829,247.61002 L 152.55829,269.17678 L 217.43534,269.35355 L 217.43534,262.28249 L 152.55829,247.61002 z " id="path2947"/>
    <path style="fill:#4a4a4a;fill-opacity:1;fill-rule:evenodd;stroke:none;stroke-width:1px;stroke-linecap:butt;stroke-linejoin:miter;stroke-opacity:1" d="M 88.565124,233.11433 L 88.741901,267.05546 L 100.58594,269.53033 L 152.73506,269 L 152.38151,247.7868 L 88.565124,233.11433 z " id="path2949"/>
    <path style="fill:#bbb;fill-opacity:1;fill-rule:evenodd;stroke:none;stroke-width:1px;stroke-linecap:butt;stroke-linejoin:miter;stroke-opacity:1" d="M 24.925514,218.79542 L 24.925514,252.55977 L 88.211571,266.87868 L 88.388348,232.93755 L 24.925514,218.79542 z " id="path2951"/>
    <path style="fill:#4a4a4a;fill-opacity:1;fill-rule:evenodd;stroke:none;stroke-width:1px;stroke-linecap:butt;stroke-linejoin:miter;stroke-opacity:1" d="M 0,212.96179 L -0.1767767,246.19581 L 25.102291,252.55977 L 24.925514,218.79542 L 0,212.96179 z " id="path2953"/>
  </g>
  <g inkscape:groupmode="layer" id="layer3" inkscape:label="sombra" style="display:inline" sodipodi:insensitive="true">
    <path transform="matrix(0.94379,-0.330546,0.280871,0.959746,0,0)" style="fill:url(#radialGradient2936);fill-opacity:1;stroke:none;stroke-width:1.19625831;stroke-miterlimit:4;stroke-dasharray:4.78503268, 4.78503268;stroke-dashoffset:0;stroke-opacity:1" d="M 183.66555,121.54429 C 184.42825,121.33605 291.59823,211.40394 291.24479,210.88725 C 281.16357,259.78573 186.67738,280.6561 146.01906,310.28767 L -60.57515,201.4066 C -61.267531,200.9066 -27.338219,96.008727 -28.48701,95.875553 C 10.844317,89.98003 71.682543,94.007414 183.66555,121.54429 z " id="rect2897" sodipodi:nodetypes="cccccc"/>
  </g>
  <g inkscape:groupmode="layer" id="layer4" inkscape:label="cilindro" style="display:inline" sodipodi:insensitive="true">
    <path style="fill:url(#linearGradient2893);fill-opacity:1;stroke:none;stroke-width:1;stroke-miterlimit:4;stroke-dasharray:4, 4;stroke-dashoffset:0;stroke-opacity:1" d="M 207.15809,-0.46875 L 207.22111,102.5 C 207.21466,102.66659 207.1896,102.83273 207.1896,103 C 207.1896,118.7105 235.77317,131.46875 270.99819,131.46875 C 306.2232,131.46875 334.80676,118.7105 334.80677,103 C 334.80677,102.83288 334.7817,102.66644 334.77526,102.5 L 335.5,102.5 L 335.5,-0.5 L 207.15809,-0.46875 z " id="path2854" sodipodi:nodetypes="ccssscccc"/>
    <path sodipodi:type="arc" style="opacity:1;fill:#d18600;fill-opacity:1;stroke:none;stroke-width:1;stroke-miterlimit:4;stroke-dasharray:4, 4;stroke-dashoffset:0;stroke-opacity:1;display:inline" id="path2840" sodipodi:cx="144.55914" sodipodi:cy="129.47899" sodipodi:rx="20.63868" sodipodi:ry="11.623068" d="M 165.19782 129.47899 A 20.63868 11.623068 0 1 1  123.92046,129.47899 A 20.63868 11.623068 0 1 1  165.19782 129.47899 z" transform="translate(1.939999e-3,8.563e-2)"/>
    <path sodipodi:type="arc" style="opacity:1;fill:#d18600;fill-opacity:1;stroke:none;stroke-width:1;stroke-miterlimit:4;stroke-dasharray:4, 4;stroke-dashoffset:0;stroke-opacity:1;display:inline" id="path2842" sodipodi:cx="144.55914" sodipodi:cy="129.47899" sodipodi:rx="20.63868" sodipodi:ry="11.623068" d="M 165.19782 129.47899 A 20.63868 11.623068 0 1 1  123.92046,129.47899 A 20.63868 11.623068 0 1 1  165.19782 129.47899 z" transform="translate(4.87977,-86.0436)"/>
  </g>
</svg>