<?xml version="1.0" encoding="UTF-8" standalone="no"?>
<!-- Created with Inkscape (http://www.inkscape.org/) -->
<svg xmlns:dc="http://purl.org/dc/elements/1.1/" xmlns:cc="http://creativecommons.org/ns#" xmlns:rdf="http://www.w3.org/1999/02/22-rdf-syntax-ns#" xmlns:svg="http://www.w3.org/2000/svg" xmlns="http://www.w3.org/2000/svg" xmlns:xlink="http://www.w3.org/1999/xlink" xmlns:sodipodi="http://sodipodi.sourceforge.net/DTD/sodipodi-0.dtd" xmlns:inkscape="http://www.inkscape.org/namespaces/inkscape" width="215.61778mm" height="166.79333mm" viewBox="0 0 764.00002 591" id="svg5294" version="1.1" inkscape:version="0.91 r13725" sodipodi:docname="Grey_square_optical_illusion.svg">
  <defs id="defs5296">
    <inkscape:perspective id="perspective194" inkscape:persp3d-origin="382.00001 : 197 : 1" inkscape:vp_z="764.00001 : 295.5 : 1" inkscape:vp_y="0 : 999.99998 : 0" inkscape:vp_x="0 : 295.49999 : 1" sodipodi:type="inkscape:persp3d"/>
    <linearGradient inkscape:collect="always" xlink:href="#XMLID_30_" id="linearGradient5740" gradientUnits="userSpaceOnUse" x1="299.8291" y1="467.6572" x2="269.8306" y2="401.66019"/>
    <linearGradient inkscape:collect="always" xlink:href="#XMLID_29_" id="linearGradient5742" gradientUnits="userSpaceOnUse" x1="28.049801" y1="333.6553" x2="176.5425" y2="467.14841"/>
    <linearGradient inkscape:collect="always" xlink:href="#XMLID_28_" id="linearGradient5744" gradientUnits="userSpaceOnUse" x1="430.90329" y1="400.0957" x2="420.4043" y2="355.09769"/>
    <linearGradient inkscape:collect="always" xlink:href="#XMLID_26_" id="linearGradient5746" gradientUnits="userSpaceOnUse" x1="570.36432" y1="355.82709" x2="562.86432" y2="333.32809"/>
    <linearGradient inkscape:collect="always" xlink:href="#XMLID_25_" id="linearGradient5748" gradientUnits="userSpaceOnUse" x1="199.3857" y1="262.00589" x2="212.8853" y2="323.5029"/>
    <linearGradient inkscape:collect="always" xlink:href="#XMLID_24_" id="linearGradient5750" gradientUnits="userSpaceOnUse" x1="349.01559" y1="249.6958" x2="358.01511" y2="300.6929"/>
    <linearGradient inkscape:collect="always" xlink:href="#XMLID_23_" id="linearGradient5752" gradientUnits="userSpaceOnUse" x1="632.75488" y1="324.46289" x2="620.75592" y2="307.9639"/>
    <linearGradient inkscape:collect="always" xlink:href="#XMLID_22_" id="linearGradient5754" gradientUnits="userSpaceOnUse" x1="497.0498" y1="394.6582" x2="485.0498" y2="357.16019"/>
    <linearGradient inkscape:collect="always" xlink:href="#XMLID_21_" id="linearGradient5756" gradientUnits="userSpaceOnUse" x1="364.13431" y1="463.42679" x2="337.13571" y2="379.43069"/>
    <linearGradient inkscape:collect="always" xlink:href="#XMLID_20_" id="linearGradient5758" gradientUnits="userSpaceOnUse" x1="429.73239" y1="210.7666" x2="441.73141" y2="275.2637"/>
    <linearGradient inkscape:collect="always" xlink:href="#XMLID_19_" id="linearGradient5760" gradientUnits="userSpaceOnUse" x1="181.6118" y1="500.08109" x2="195.1113" y2="410.08591"/>
    <linearGradient inkscape:collect="always" xlink:href="#XMLID_18_" id="linearGradient5762" gradientUnits="userSpaceOnUse" x1="288.4917" y1="250.7153" x2="297.4917" y2="307.71191"/>
    <linearGradient inkscape:collect="always" xlink:href="#XMLID_17_" id="linearGradient5764" gradientUnits="userSpaceOnUse" x1="105.5327" y1="275.37451" x2="159.5303" y2="353.37061"/>
    <linearGradient inkscape:collect="always" xlink:href="#XMLID_17_" id="linearGradient5766" gradientUnits="userSpaceOnUse" x1="105.5327" y1="275.37451" x2="159.5303" y2="353.37061"/>
    <linearGradient inkscape:collect="always" xlink:href="#XMLID_18_" id="linearGradient5768" gradientUnits="userSpaceOnUse" x1="288.4917" y1="250.7153" x2="297.4917" y2="307.71191"/>
    <linearGradient inkscape:collect="always" xlink:href="#XMLID_19_" id="linearGradient5770" gradientUnits="userSpaceOnUse" x1="181.6118" y1="500.08109" x2="195.1113" y2="410.08591"/>
    <linearGradient inkscape:collect="always" xlink:href="#XMLID_20_" id="linearGradient5772" gradientUnits="userSpaceOnUse" x1="429.73239" y1="210.7666" x2="441.73141" y2="275.2637"/>
    <linearGradient inkscape:collect="always" xlink:href="#XMLID_21_" id="linearGradient5774" gradientUnits="userSpaceOnUse" x1="364.13431" y1="463.42679" x2="337.13571" y2="379.43069"/>
    <linearGradient inkscape:collect="always" xlink:href="#XMLID_22_" id="linearGradient5776" gradientUnits="userSpaceOnUse" x1="497.0498" y1="394.6582" x2="485.0498" y2="357.16019"/>
    <linearGradient inkscape:collect="always" xlink:href="#XMLID_23_" id="linearGradient5778" gradientUnits="userSpaceOnUse" x1="632.75488" y1="324.46289" x2="620.75592" y2="307.9639"/>
    <linearGradient inkscape:collect="always" xlink:href="#XMLID_24_" id="linearGradient5780" gradientUnits="userSpaceOnUse" x1="349.01559" y1="249.6958" x2="358.01511" y2="300.6929"/>
    <linearGradient inkscape:collect="always" xlink:href="#XMLID_25_" id="linearGradient5782" gradientUnits="userSpaceOnUse" x1="199.3857" y1="262.00589" x2="212.8853" y2="323.5029"/>
    <linearGradient inkscape:collect="always" xlink:href="#XMLID_26_" id="linearGradient5784" gradientUnits="userSpaceOnUse" x1="570.36432" y1="355.82709" x2="562.86432" y2="333.32809"/>
    <linearGradient inkscape:collect="always" xlink:href="#XMLID_28_" id="linearGradient5786" gradientUnits="userSpaceOnUse" x1="430.90329" y1="400.0957" x2="420.4043" y2="355.09769"/>
    <linearGradient inkscape:collect="always" xlink:href="#XMLID_29_" id="linearGradient5788" gradientUnits="userSpaceOnUse" x1="28.049801" y1="333.6553" x2="176.5425" y2="467.14841"/>
    <linearGradient inkscape:collect="always" xlink:href="#XMLID_30_" id="linearGradient5790" gradientUnits="userSpaceOnUse" x1="299.8291" y1="467.6572" x2="269.8306" y2="401.66019"/>
  </defs>
  <sodipodi:namedview id="base" pagecolor="#ffffff" bordercolor="#666666" borderopacity="1.0" inkscape:pageopacity="0.0" inkscape:pageshadow="2" inkscape:zoom="1.4" inkscape:cx="443.58906" inkscape:cy="218.17923" inkscape:document-units="px" inkscape:current-layer="Layer_3" showgrid="false" inkscape:window-width="1918" inkscape:window-height="1592" inkscape:window-x="1920" inkscape:window-y="532" inkscape:window-maximized="0" fit-margin-top="0" fit-margin-left="0" fit-margin-right="0" fit-margin-bottom="0"/>
  <metadata id="metadata5299">
    <rdf:RDF>
      <cc:Work rdf:about="">
        <dc:format>image/svg+xml</dc:format>
        <dc:type rdf:resource="http://purl.org/dc/dcmitype/StillImage"/>
        <dc:title/>
      </cc:Work>
    </rdf:RDF>
  </metadata>
  <g inkscape:label="Layer 1" inkscape:groupmode="layer" id="layer1" transform="translate(8.285714,-75.71934)">
    <g style="overflow:visible" id="g5485" transform="translate(-76.285714,-463.1378)">
      <g id="g4915" transform="translate(68,538.85714)">
        <polygon style="fill:#b2b2b2" points="120.6,489.1 26,467.5 26,414.5 120.6,436.5 " id="polygon4917"/>
        <linearGradient id="linearGradient4919" gradientUnits="userSpaceOnUse" x1="105.5327" y1="275.37451" x2="159.5303" y2="353.37061">
          <stop offset="0" style="stop-color:#787877" id="stop4921"/>
          <stop offset="1" style="stop-color:#3E3E3E" id="stop4923"/>
        </linearGradient>
        <polygon style="fill:url(#linearGradient5766)" points="172.979,381.258 79.196,359.781 132.395,305.06 225.362,326.012 " id="polygon4925"/>
        <polygon style="fill:#787877" points="277.75,270.761 185.6,250.332 238.809,195.599 330.143,215.505 " id="polygon4927"/>
        <linearGradient id="linearGradient4929" gradientUnits="userSpaceOnUse" x1="288.4917" y1="250.7153" x2="297.4917" y2="307.71191">
          <stop offset="0" style="stop-color:#787877" id="stop4931"/>
          <stop offset="1" style="stop-color:#3E3E3E" id="stop4933"/>
        </linearGradient>
        <polygon style="fill:url(#linearGradient5768)" points="225.362,326.012 277.75,270.761 369.902,291.19 318.33,346.965 " id="polygon4935"/>
        <linearGradient id="linearGradient4937" gradientUnits="userSpaceOnUse" x1="181.6118" y1="500.08109" x2="195.1113" y2="410.08591">
          <stop offset="0" style="stop-color:#787877" id="stop4939"/>
          <stop offset="1" style="stop-color:#3E3E3E" id="stop4941"/>
        </linearGradient>
        <polygon style="fill:url(#linearGradient5770)" points="120.6,436.5 172.979,381.258 266.763,402.734 215.2,458.5 " id="polygon4943"/>
        <polygon style="fill:#787877" points="469.2,183.8 378.6,164.4 330.143,215.505 421.479,235.411 " id="polygon4945"/>
        <linearGradient id="linearGradient4947" gradientUnits="userSpaceOnUse" x1="429.73239" y1="210.7666" x2="441.73141" y2="275.2637">
          <stop offset="0" style="stop-color:#787877" id="stop4949"/>
          <stop offset="1" style="stop-color:#3E3E3E" id="stop4951"/>
        </linearGradient>
        <polygon style="fill:url(#linearGradient5772)" points="369.902,291.19 421.479,235.411 512.813,255.317 462.054,311.62 " id="polygon4953"/>
        <linearGradient id="linearGradient4955" gradientUnits="userSpaceOnUse" x1="364.13431" y1="463.42679" x2="337.13571" y2="379.43069">
          <stop offset="0" style="stop-color:#787877" id="stop4957"/>
          <stop offset="1" style="stop-color:#3E3E3E" id="stop4959"/>
        </linearGradient>
        <polygon style="fill:url(#linearGradient5774)" points="266.763,402.734 318.33,346.965 411.299,367.918 360.547,424.211 " id="polygon4961"/>
        <polygon style="fill:#b2b2b2" points="215.2,510.7 215.2,458.5 309.8,480.5 309.8,532.3 " id="polygon4963"/>
        <polygon style="fill:#787877" points="309.8,480.5 360.547,424.211 454.332,445.688 404.4,502.5 " id="polygon4965"/>
        <linearGradient id="linearGradient4967" gradientUnits="userSpaceOnUse" x1="497.0498" y1="394.6582" x2="485.0498" y2="357.16019">
          <stop offset="0" style="stop-color:#787877" id="stop4969"/>
          <stop offset="1" style="stop-color:#3E3E3E" id="stop4971"/>
        </linearGradient>
        <polygon style="fill:url(#linearGradient5776)" points="411.299,367.918 462.054,311.62 554.207,332.05 504.268,388.87 " id="polygon4973"/>
        <polygon style="fill:#787877" points="604.15,275.224 512.813,255.317 559.8,203.2 650.4,222.6 " id="polygon4975"/>
        <linearGradient id="linearGradient4977" gradientUnits="userSpaceOnUse" x1="632.75488" y1="324.46289" x2="620.75592" y2="307.9639">
          <stop offset="0" style="stop-color:#787877" id="stop4979"/>
          <stop offset="1" style="stop-color:#3E3E3E" id="stop4981"/>
        </linearGradient>
        <polygon style="fill:url(#linearGradient5778)" points="554.207,332.05 604.15,275.224 695.487,295.13 646.359,352.479 " id="polygon4983"/>
        <polygon style="fill:#787877" points="454.332,445.688 504.268,388.87 597.236,409.823 548.116,467.164 " id="polygon4985"/>
        <polygon style="fill:#b2b2b2" points="404.4,553.9 404.4,502.5 499,524.5 499,575.5 " id="polygon4987"/>
        <polygon style="fill:#d5d4d5" points="597.236,459.629 597.236,409.823 646.359,352.479 646.359,401.687 " id="polygon4989"/>
        <polygon style="fill:#d5d4d5" points="695.487,343.739 695.487,295.13 741,242 741,290.057 " id="polygon4991"/>
        <polygon style="fill:#cdcdcd" points="238.809,195.599 288,145 378.6,164.4 330.143,215.505 " id="polygon4993"/>
        <polygon style="fill:#cdcdcd" points="421.479,235.411 469.2,183.8 559.8,203.2 512.813,255.317 " id="polygon4995"/>
        <polygon style="fill:#cdcdcd" points="604.15,275.224 650.4,222.6 741,242 695.487,295.13 " id="polygon4997"/>
        <linearGradient id="linearGradient4999" gradientUnits="userSpaceOnUse" x1="349.01559" y1="249.6958" x2="358.01511" y2="300.6929">
          <stop offset="0" style="stop-color:#CDCDCD" id="stop5001"/>
          <stop offset="1" style="stop-color:#787877" id="stop5003"/>
        </linearGradient>
        <polygon style="fill:url(#linearGradient5780)" points="277.75,270.761 330.143,215.505 421.479,235.411 369.902,291.19 " id="polygon5005"/>
        <polygon style="fill:#5f5f5f" points="462.054,311.62 512.813,255.317 604.15,275.224 554.207,332.05 " id="polygon5007"/>
        <polygon style="fill:#969695" points="695.487,343.739 646.359,401.687 646.359,352.479 695.487,295.13 " id="polygon5009"/>
        <linearGradient id="linearGradient5011" gradientUnits="userSpaceOnUse" x1="199.3857" y1="262.00589" x2="212.8853" y2="323.5029">
          <stop offset="0" style="stop-color:#CDCDCD" id="stop5013"/>
          <stop offset="1" style="stop-color:#787877" id="stop5015"/>
        </linearGradient>
        <polygon style="fill:url(#linearGradient5782)" points="225.362,326.012 132.395,305.06 185.6,250.332 277.75,270.761 " id="polygon5017"/>
        <polygon style="fill:#787877" points="411.299,367.918 318.33,346.965 369.902,291.19 462.054,311.62 " id="polygon5019"/>
        <linearGradient id="linearGradient5021" gradientUnits="userSpaceOnUse" x1="570.36432" y1="355.82709" x2="562.86432" y2="333.32809">
          <stop offset="0" style="stop-color:#CDCDCD" id="stop5023"/>
          <stop offset="1" style="stop-color:#787877" id="stop5025"/>
        </linearGradient>
        <polygon style="fill:url(#linearGradient5784)" points="504.268,388.87 554.207,332.05 646.359,352.479 597.236,409.823 " id="polygon5027"/>
        <polygon style="fill:#797979" points="266.763,402.734 172.979,381.258 225.362,326.012 318.33,346.965 " id="polygon5029"/>
        <linearGradient id="linearGradient5031" gradientUnits="userSpaceOnUse" x1="430.90329" y1="400.0957" x2="420.4043" y2="355.09769">
          <stop offset="0" style="stop-color:#CDCDCD" id="stop5033"/>
          <stop offset="1" style="stop-color:#787877" id="stop5035"/>
        </linearGradient>
        <polygon style="fill:url(#linearGradient5786)" points="454.332,445.688 360.547,424.211 411.299,367.918 504.268,388.87 " id="polygon5037"/>
        <linearGradient id="linearGradient5039" gradientUnits="userSpaceOnUse" x1="28.049801" y1="333.6553" x2="176.5425" y2="467.14841">
          <stop offset="0" style="stop-color:#CDCDCD" id="stop5041"/>
          <stop offset="1" style="stop-color:#787877" id="stop5043"/>
        </linearGradient>
        <polygon style="fill:url(#linearGradient5788)" points="120.6,436.5 26,414.5 79.196,359.781 172.979,381.258 " id="polygon5045"/>
        <polygon style="fill:#575757" points="215.2,510.7 120.6,489.1 120.6,436.5 215.2,458.5 " id="polygon5047"/>
        <linearGradient id="linearGradient5049" gradientUnits="userSpaceOnUse" x1="299.8291" y1="467.6572" x2="269.8306" y2="401.66019">
          <stop offset="0" style="stop-color:#CDCDCD" id="stop5051"/>
          <stop offset="1" style="stop-color:#787877" id="stop5053"/>
        </linearGradient>
        <polygon style="fill:url(#linearGradient5790)" points="309.8,480.5 215.2,458.5 266.763,402.734 360.547,424.211 " id="polygon5055"/>
        <polygon style="fill:#575757" points="404.4,553.9 309.8,532.3 309.8,480.5 404.4,502.5 " id="polygon5057"/>
        <polygon style="fill:#cdcdcd" points="499,524.5 404.4,502.5 454.332,445.688 548.116,467.164 " id="polygon5059"/>
        <polygon style="fill:#d5d4d5" points="548.116,517.566 499,575.5 499,524.5 548.116,467.164 " id="polygon5061"/>
        <polygon style="fill:#969695" points="597.236,459.629 548.116,517.566 548.116,467.164 597.236,409.823 " id="polygon5063"/>
      </g>
      <g id="Layer_1" transform="translate(68,538.85714)">
        <rect id="rect8" height="591" width="764" style="fill:none" x="0" y="0"/>
      </g>
      <g id="Layer_3">
        <polygon id="polygon11" points="120.6,489.1 26,467.5 26,414.5 120.6,436.5 " style="fill:#b2b2b2" transform="translate(68,538.85714)"/>
        <linearGradient y2="353.37061" x2="159.5303" y1="275.37451" x1="105.5327" gradientUnits="userSpaceOnUse" id="XMLID_17_">
          <stop id="stop14" style="stop-color:#787877" offset="0"/>
          <stop id="stop16" style="stop-color:#3E3E3E" offset="1"/>
        </linearGradient>
        <polygon id="polygon18" points="172.979,381.258 79.196,359.781 132.395,305.06 225.362,326.012 " style="fill:url(#linearGradient5764)" transform="translate(68,538.85714)"/>
        <polygon id="polygon20" points="277.75,270.761 185.6,250.332 238.809,195.599 330.143,215.505 " style="fill:#787877" transform="translate(68,538.85714)"/>
        <linearGradient y2="307.71191" x2="297.4917" y1="250.7153" x1="288.4917" gradientUnits="userSpaceOnUse" id="XMLID_18_">
          <stop id="stop23" style="stop-color:#787877" offset="0"/>
          <stop id="stop25" style="stop-color:#3E3E3E" offset="1"/>
        </linearGradient>
        <polygon id="polygon27" points="225.362,326.012 277.75,270.761 369.902,291.19 318.33,346.965 " style="fill:url(#linearGradient5762)" transform="translate(68,538.85714)"/>
        <linearGradient y2="410.08591" x2="195.1113" y1="500.08109" x1="181.6118" gradientUnits="userSpaceOnUse" id="XMLID_19_">
          <stop id="stop30" style="stop-color:#787877" offset="0"/>
          <stop id="stop32" style="stop-color:#3E3E3E" offset="1"/>
        </linearGradient>
        <polygon id="polygon34" points="120.6,436.5 172.979,381.258 266.763,402.734 215.2,458.5 " style="fill:url(#linearGradient5760)" transform="translate(68,538.85714)"/>
        <polygon id="polygon36" points="469.2,183.8 378.6,164.4 330.143,215.505 421.479,235.411 " style="fill:#787877" transform="translate(68,538.85714)"/>
        <linearGradient y2="275.2637" x2="441.73141" y1="210.7666" x1="429.73239" gradientUnits="userSpaceOnUse" id="XMLID_20_">
          <stop id="stop39" style="stop-color:#787877" offset="0"/>
          <stop id="stop41" style="stop-color:#3E3E3E" offset="1"/>
        </linearGradient>
        <polygon id="polygon43" points="369.902,291.19 421.479,235.411 512.813,255.317 462.054,311.62 " style="fill:url(#linearGradient5758)" transform="translate(68,538.85714)"/>
        <linearGradient y2="379.43069" x2="337.13571" y1="463.42679" x1="364.13431" gradientUnits="userSpaceOnUse" id="XMLID_21_">
          <stop id="stop46" style="stop-color:#787877" offset="0"/>
          <stop id="stop48" style="stop-color:#3E3E3E" offset="1"/>
        </linearGradient>
        <polygon id="polygon50" points="266.763,402.734 318.33,346.965 411.299,367.918 360.547,424.211 " style="fill:url(#linearGradient5756)" transform="translate(68,538.85714)"/>
        <polygon id="polygon52" points="215.2,510.7 215.2,458.5 309.8,480.5 309.8,532.3 " style="fill:#b2b2b2" transform="translate(68,538.85714)"/>
        <polygon id="polygon54" points="309.8,480.5 360.547,424.211 454.332,445.688 404.4,502.5 " style="fill:#787877" transform="translate(68,538.85714)"/>
        <linearGradient y2="357.16019" x2="485.0498" y1="394.6582" x1="497.0498" gradientUnits="userSpaceOnUse" id="XMLID_22_">
          <stop id="stop57" style="stop-color:#787877" offset="0"/>
          <stop id="stop59" style="stop-color:#3E3E3E" offset="1"/>
        </linearGradient>
        <polygon id="polygon61" points="411.299,367.918 462.054,311.62 554.207,332.05 504.268,388.87 " style="fill:url(#linearGradient5754)" transform="translate(68,538.85714)"/>
        <polygon id="polygon63" points="604.15,275.224 512.813,255.317 559.8,203.2 650.4,222.6 " style="fill:#787877" transform="translate(68,538.85714)"/>
        <linearGradient y2="307.9639" x2="620.75592" y1="324.46289" x1="632.75488" gradientUnits="userSpaceOnUse" id="XMLID_23_">
          <stop id="stop66" style="stop-color:#787877" offset="0"/>
          <stop id="stop68" style="stop-color:#3E3E3E" offset="1"/>
        </linearGradient>
        <polygon id="polygon70" points="554.207,332.05 604.15,275.224 695.487,295.13 646.359,352.479 " style="fill:url(#linearGradient5752)" transform="translate(68,538.85714)"/>
        <polygon id="polygon72" points="454.332,445.688 504.268,388.87 597.236,409.823 548.116,467.164 " style="fill:#787877" transform="translate(68,538.85714)"/>
        <polygon id="polygon74" points="404.4,553.9 404.4,502.5 499,524.5 499,575.5 " style="fill:#b2b2b2" transform="translate(68,538.85714)"/>
        <polygon id="polygon76" points="597.236,459.629 597.236,409.823 646.359,352.479 646.359,401.687 " style="fill:#d5d4d5" transform="translate(68,538.85714)"/>
        <polygon id="polygon78" points="695.487,343.739 695.487,295.13 741,242 741,290.057 " style="fill:#d5d4d5" transform="translate(68,538.85714)"/>
        <polygon id="polygon80" points="238.809,195.599 288,145 378.6,164.4 330.143,215.505 " style="fill:#cdcdcd" transform="translate(68,538.85714)"/>
        <polygon id="polygon82" points="421.479,235.411 469.2,183.8 559.8,203.2 512.813,255.317 " style="fill:#cdcdcd" transform="translate(68,538.85714)"/>
        <polygon id="polygon84" points="604.15,275.224 650.4,222.6 741,242 695.487,295.13 " style="fill:#cdcdcd" transform="translate(68,538.85714)"/>
        <linearGradient y2="300.6929" x2="358.01511" y1="249.6958" x1="349.01559" gradientUnits="userSpaceOnUse" id="XMLID_24_">
          <stop id="stop87" style="stop-color:#CDCDCD" offset="0"/>
          <stop id="stop89" style="stop-color:#787877" offset="1"/>
        </linearGradient>
        <polygon id="polygon91" points="277.75,270.761 330.143,215.505 421.479,235.411 369.902,291.19 " style="fill:url(#linearGradient5750)" transform="translate(68,538.85714)"/>
        <polygon id="polygon93" points="462.054,311.62 512.813,255.317 604.15,275.224 554.207,332.05 " style="fill:#5f5f5f" transform="translate(68,538.85714)"/>
        <polygon id="polygon95" points="695.487,343.739 646.359,401.687 646.359,352.479 695.487,295.13 " style="fill:#969695" transform="translate(68,538.85714)"/>
        <linearGradient y2="323.5029" x2="212.8853" y1="262.00589" x1="199.3857" gradientUnits="userSpaceOnUse" id="XMLID_25_">
          <stop id="stop98" style="stop-color:#CDCDCD" offset="0"/>
          <stop id="stop100" style="stop-color:#787877" offset="1"/>
        </linearGradient>
        <polygon id="polygon102" points="225.362,326.012 132.395,305.06 185.6,250.332 277.75,270.761 " style="fill:url(#linearGradient5748)" transform="translate(68,538.85714)"/>
        <polygon id="polygon104" points="411.299,367.918 318.33,346.965 369.902,291.19 462.054,311.62 " style="fill:#787877" transform="translate(68,538.85714)"/>
        <linearGradient y2="333.32809" x2="562.86432" y1="355.82709" x1="570.36432" gradientUnits="userSpaceOnUse" id="XMLID_26_">
          <stop id="stop107" style="stop-color:#CDCDCD" offset="0"/>
          <stop id="stop109" style="stop-color:#787877" offset="1"/>
        </linearGradient>
        <polygon id="polygon111" points="504.268,388.87 554.207,332.05 646.359,352.479 597.236,409.823 " style="fill:url(#linearGradient5746)" transform="translate(68,538.85714)"/>
        <polygon id="polygon113" points="266.763,402.734 172.979,381.258 225.362,326.012 318.33,346.965 " style="fill:#797979" transform="translate(68,538.85714)"/>
        <linearGradient y2="355.09769" x2="420.4043" y1="400.0957" x1="430.90329" gradientUnits="userSpaceOnUse" id="XMLID_28_">
          <stop id="stop116" style="stop-color:#CDCDCD" offset="0"/>
          <stop id="stop118" style="stop-color:#787877" offset="1"/>
        </linearGradient>
        <polygon id="polygon120" points="454.332,445.688 360.547,424.211 411.299,367.918 504.268,388.87 " style="fill:url(#linearGradient5744)" transform="translate(68,538.85714)"/>
        <linearGradient y2="467.14841" x2="176.5425" y1="333.6553" x1="28.049801" gradientUnits="userSpaceOnUse" id="XMLID_29_">
          <stop id="stop123" style="stop-color:#CDCDCD" offset="0"/>
          <stop id="stop125" style="stop-color:#787877" offset="1"/>
        </linearGradient>
        <polygon id="polygon127" points="120.6,436.5 26,414.5 79.196,359.781 172.979,381.258 " style="fill:url(#linearGradient5742)" transform="translate(68,538.85714)"/>
        <polygon id="polygon129" points="215.2,510.7 120.6,489.1 120.6,436.5 215.2,458.5 " style="fill:#575757" transform="translate(68,538.85714)"/>
        <linearGradient y2="401.66019" x2="269.8306" y1="467.6572" x1="299.8291" gradientUnits="userSpaceOnUse" id="XMLID_30_">
          <stop id="stop132" style="stop-color:#CDCDCD" offset="0"/>
          <stop id="stop134" style="stop-color:#787877" offset="1"/>
        </linearGradient>
        <polygon id="polygon136" points="309.8,480.5 215.2,458.5 266.763,402.734 360.547,424.211 " style="fill:url(#linearGradient5740)" transform="translate(68,538.85714)"/>
        <polygon id="polygon138" points="404.4,553.9 309.8,532.3 309.8,480.5 404.4,502.5 " style="fill:#575757" transform="translate(68,538.85714)"/>
        <polygon id="polygon140" points="499,524.5 404.4,502.5 454.332,445.688 548.116,467.164 " style="fill:#cdcdcd" transform="translate(68,538.85714)"/>
        <polygon id="polygon142" points="548.116,517.566 499,575.5 499,524.5 548.116,467.164 " style="fill:#d5d4d5" transform="translate(68,538.85714)"/>
        <polygon id="polygon144" points="597.236,459.629 548.116,517.566 548.116,467.164 597.236,409.823 " style="fill:#969695" transform="translate(68,538.85714)"/>
        <path style="fill:#787877;fill-opacity:1;fill-rule:evenodd;stroke:none;stroke-width:1px;stroke-linecap:butt;stroke-linejoin:miter;stroke-opacity:1" d="m 437.6066,759.78941 51.83715,13.03627 1.48482,71.24573 -53.03571,-13.86161 z" id="path5792" inkscape:connector-curvature="0" sodipodi:nodetypes="ccccc"/>
      </g>
      <g id="Layer_2" transform="translate(68,538.85714)">
        <g id="g147" style="opacity:0.2;filter:url(#GaussianBlur_2)">
          <ellipse id="ellipse149" ry="47" rx="94.952003" cy="284.461" cx="577.04797"/>
        </g>
        <linearGradient y2="196.3862" x2="674" y1="196.3862" x1="484.09671" gradientUnits="userSpaceOnUse" id="XMLID_31_">
          <stop id="stop152" style="stop-color:#215433" offset="0.4381"/>
          <stop id="stop154" style="stop-color:#2C5D3C" offset="0.5333"/>
          <stop id="stop156" style="stop-color:#537D5F" offset="0.6476"/>
          <stop id="stop158" style="stop-color:#9DB59C" offset="0.8476"/>
          <stop id="stop160" style="stop-color:#CEDFCC" offset="1"/>
        </linearGradient>
        <path id="path162" d="m 484.097,282.46 c 0,25.958 42.512,47 94.952,47 52.439,0 94.951,-21.043 94.951,-47 l 0,-219.148 c 0,25.958 -42.512,47 -94.951,47 -52.44,0 -94.952,-21.042 -94.952,-47 l 0,219.148 z" style="fill:url(#XMLID_31_)" inkscape:connector-curvature="0"/>
        <linearGradient y2="66.311501" x2="674" y1="66.311501" x1="484.09671" gradientUnits="userSpaceOnUse" id="XMLID_32_">
          <stop id="stop165" style="stop-color:#2C5D3C" offset="0"/>
          <stop id="stop167" style="stop-color:#537D5F" offset="0.381"/>
          <stop id="stop169" style="stop-color:#CEDFCC" offset="0.9571"/>
        </linearGradient>
        <ellipse id="ellipse171" ry="47" rx="94.952003" cy="66.311996" cx="579.04797" style="fill:url(#XMLID_32_)"/>
        <ellipse id="ellipse173" ry="47" rx="94.952003" cy="63.312" cx="579.04797" style="fill:#7fa684"/>
      </g>
      <g id="Layer_4" transform="translate(68,538.85714)">
        <g id="g176">
          <g id="g178">
            <path id="path180" d="m 386.478,204.596 22.637,-13.425 2.77,0.651 -7.311,17.028 -2.917,-0.686 2.361,-5.116 -8.113,-1.908 -6.721,4.092 -2.706,-0.636 z m 11.803,-4.915 6.582,1.547 2.19,-4.68 c 0.663,-1.42 1.258,-2.58 1.78,-3.48 -1.232,0.917 -2.554,1.804 -3.963,2.657 l -6.589,3.956 z" style="fill:#505050" inkscape:connector-curvature="0"/>
          </g>
        </g>
        <g id="g182">
          <g id="g184">
            <path id="path186" d="m 378.358,334.157 15.213,-15.17 7.259,1.706 c 1.479,0.348 2.511,0.78 3.095,1.297 0.585,0.518 0.81,1.155 0.675,1.912 -0.134,0.758 -0.55,1.485 -1.25,2.184 -0.65,0.648 -1.489,1.207 -2.512,1.675 -1.025,0.467 -2.168,0.771 -3.429,0.909 0.904,0.545 1.347,1.216 1.329,2.012 -0.02,0.796 -0.472,1.636 -1.356,2.518 -0.712,0.71 -1.565,1.325 -2.56,1.846 -0.996,0.52 -1.94,0.879 -2.835,1.077 -0.896,0.198 -1.853,0.282 -2.872,0.252 -1.019,-0.031 -2.144,-0.191 -3.375,-0.481 l -7.382,-1.737 z m 4.347,-1.186 4.827,1.135 c 0.829,0.195 1.435,0.308 1.817,0.338 0.674,0.057 1.307,0.034 1.897,-0.066 0.591,-0.1 1.197,-0.305 1.824,-0.613 0.625,-0.31 1.182,-0.705 1.666,-1.188 0.568,-0.566 0.874,-1.102 0.917,-1.608 0.044,-0.505 -0.178,-0.92 -0.664,-1.243 -0.485,-0.323 -1.345,-0.63 -2.576,-0.92 l -4.476,-1.052 -5.232,5.217 z m 7.025,-7.006 4.186,0.984 c 1.135,0.267 2.008,0.399 2.618,0.397 0.804,10e-4 1.548,-0.136 2.23,-0.41 0.682,-0.274 1.292,-0.678 1.826,-1.21 0.505,-0.504 0.796,-0.984 0.872,-1.44 0.076,-0.455 -0.101,-0.821 -0.531,-1.098 -0.431,-0.275 -1.34,-0.577 -2.73,-0.904 l -3.868,-0.909 -4.603,4.59 z" style="fill:#3e3e3e" inkscape:connector-curvature="0"/>
          </g>
        </g>
      </g>
    </g>
  </g>
</svg>