<?xml version="1.0" encoding="UTF-8"?>
<svg xmlns="http://www.w3.org/2000/svg" xmlns:xlink="http://www.w3.org/1999/xlink" width="1400" height="474" viewBox="0 0 1400 474">
<rect x="-140" y="-47.4" width="1680" height="568.8" fill="rgb(0%, 16.600934%, 98.969447%)" fill-opacity="1"/>
<path fill-rule="nonzero" fill="rgb(0%, 31.100336%, 79.957645%)" fill-opacity="1" d="M 130.089844 86.945312 L 140.277344 85.011719 L 147.046875 92.867188 L 143.628906 102.65625 L 133.441406 104.589844 L 126.671875 96.734375 Z M 130.089844 86.945312 "/>
<path fill-rule="nonzero" fill="rgb(0%, 16.600934%, 98.969447%)" fill-opacity="1" d="M 134.152344 91.65625 L 138.226562 90.882812 L 140.933594 94.027344 L 139.566406 97.941406 L 135.492188 98.714844 L 132.785156 95.574219 Z M 134.152344 91.65625 "/>
<path fill-rule="nonzero" fill="rgb(0%, 31.100336%, 79.957645%)" fill-opacity="1" d="M 244.378906 105.167969 L 235.488281 99.835938 L 235.660156 89.46875 L 244.722656 84.433594 L 253.617188 89.765625 L 253.445312 100.132812 Z M 244.378906 105.167969 "/>
<path fill-rule="nonzero" fill="rgb(0%, 16.600934%, 98.969447%)" fill-opacity="1" d="M 244.484375 98.945312 L 240.925781 96.8125 L 240.996094 92.667969 L 244.621094 90.652344 L 248.175781 92.785156 L 248.109375 96.933594 Z M 244.484375 98.945312 "/>
<path fill-rule="nonzero" fill="rgb(0%, 31.100336%, 79.957645%)" fill-opacity="1" d="M 342.136719 97.113281 L 345.1875 87.203125 L 355.292969 84.890625 L 362.351562 92.488281 L 359.300781 102.394531 L 349.195312 104.710938 Z M 342.136719 97.113281 "/>
<path fill-rule="nonzero" fill="rgb(0%, 16.600934%, 98.969447%)" fill-opacity="1" d="M 348.199219 95.726562 L 349.421875 91.761719 L 353.464844 90.835938 L 356.285156 93.875 L 355.066406 97.839844 L 351.023438 98.765625 Z M 348.199219 95.726562 "/>
<path fill-rule="nonzero" fill="rgb(0%, 31.100336%, 79.957645%)" fill-opacity="1" d="M 468.8125 89.441406 L 469.015625 99.808594 L 460.136719 105.167969 L 451.058594 100.15625 L 450.859375 89.789062 L 459.734375 84.433594 Z M 468.8125 89.441406 "/>
<path fill-rule="nonzero" fill="rgb(0%, 16.600934%, 98.969447%)" fill-opacity="1" d="M 463.488281 92.65625 L 463.566406 96.804688 L 460.015625 98.945312 L 456.382812 96.941406 L 456.304688 92.796875 L 459.855469 90.652344 Z M 463.488281 92.65625 "/>
<path fill-rule="nonzero" fill="rgb(0%, 31.100336%, 79.957645%)" fill-opacity="1" d="M 574.613281 102.464844 L 564.484375 104.679688 L 557.5 97.015625 L 560.644531 87.136719 L 570.773438 84.917969 L 577.757812 92.582031 Z M 574.613281 102.464844 "/>
<path fill-rule="nonzero" fill="rgb(0%, 16.600934%, 98.969447%)" fill-opacity="1" d="M 570.421875 97.867188 L 566.371094 98.753906 L 563.578125 95.6875 L 564.835938 91.734375 L 568.886719 90.847656 L 571.679688 93.914062 Z M 570.421875 97.867188 "/>
<path fill-rule="nonzero" fill="rgb(0%, 31.100336%, 79.957645%)" fill-opacity="1" d="M 676.074219 105.140625 L 666.742188 100.625 L 665.988281 90.28125 L 674.566406 84.457031 L 683.898438 88.976562 L 684.652344 99.316406 Z M 676.074219 105.140625 "/>
<path fill-rule="nonzero" fill="rgb(0%, 16.600934%, 98.969447%)" fill-opacity="1" d="M 675.621094 98.9375 L 671.890625 97.128906 L 671.585938 92.992188 L 675.019531 90.664062 L 678.753906 92.46875 L 679.054688 96.605469 Z M 675.621094 98.9375 "/>
<path fill-rule="nonzero" fill="rgb(0%, 31.100336%, 79.957645%)" fill-opacity="1" d="M 785.363281 84.703125 L 792.933594 91.789062 L 790.582031 101.886719 L 780.660156 104.898438 L 773.089844 97.8125 L 775.445312 87.714844 Z M 785.363281 84.703125 "/>
<path fill-rule="nonzero" fill="rgb(0%, 16.600934%, 98.969447%)" fill-opacity="1" d="M 783.953125 90.761719 L 786.980469 93.59375 L 786.039062 97.632812 L 782.070312 98.839844 L 779.042969 96.003906 L 779.984375 91.964844 Z M 783.953125 90.761719 "/>
<path fill-rule="nonzero" fill="rgb(0%, 31.100336%, 79.957645%)" fill-opacity="1" d="M 881.109375 98.730469 L 882.503906 88.457031 L 892.097656 84.523438 L 900.300781 90.871094 L 898.90625 101.144531 L 889.3125 105.074219 Z M 881.109375 98.730469 "/>
<path fill-rule="nonzero" fill="rgb(0%, 16.600934%, 98.969447%)" fill-opacity="1" d="M 886.867188 96.371094 L 887.425781 92.261719 L 891.261719 90.691406 L 894.542969 93.226562 L 893.984375 97.335938 L 890.148438 98.910156 Z M 886.867188 96.371094 "/>
<path fill-rule="nonzero" fill="rgb(0%, 31.100336%, 79.957645%)" fill-opacity="1" d="M 1004.289062 86.269531 L 1008.730469 95.636719 L 1002.839844 104.167969 L 992.503906 103.332031 L 988.0625 93.960938 L 993.957031 85.429688 Z M 1004.289062 86.269531 "/>
<path fill-rule="nonzero" fill="rgb(0%, 16.600934%, 98.969447%)" fill-opacity="1" d="M 1000.753906 91.386719 L 1002.53125 95.136719 L 1000.175781 98.546875 L 996.039062 98.210938 L 994.261719 94.464844 L 996.621094 91.050781 Z M 1000.753906 91.386719 "/>
<path fill-rule="nonzero" fill="rgb(0%, 31.100336%, 79.957645%)" fill-opacity="1" d="M 1096.160156 97.78125 L 1098.542969 87.691406 L 1108.472656 84.710938 L 1116.019531 91.820312 L 1113.636719 101.910156 L 1103.707031 104.890625 Z M 1096.160156 97.78125 "/>
<path fill-rule="nonzero" fill="rgb(0%, 16.600934%, 98.969447%)" fill-opacity="1" d="M 1102.117188 95.992188 L 1103.070312 91.957031 L 1107.042969 90.761719 L 1110.0625 93.609375 L 1109.109375 97.644531 L 1105.136719 98.835938 Z M 1102.117188 95.992188 "/>
<path fill-rule="nonzero" fill="rgb(0%, 31.100336%, 79.957645%)" fill-opacity="1" d="M 1212.679688 84.488281 L 1222.160156 88.691406 L 1223.261719 99 L 1214.886719 105.109375 L 1205.40625 100.910156 L 1204.300781 90.601562 Z M 1212.679688 84.488281 "/>
<path fill-rule="nonzero" fill="rgb(0%, 16.600934%, 98.969447%)" fill-opacity="1" d="M 1213.339844 90.675781 L 1217.132812 92.355469 L 1217.574219 96.480469 L 1214.222656 98.925781 L 1210.429688 97.242188 L 1209.988281 93.121094 Z M 1213.339844 90.675781 "/>
<path fill-rule="nonzero" fill="rgb(0%, 31.100336%, 79.957645%)" fill-opacity="1" d="M 1313.289062 88.433594 L 1322.894531 84.527344 L 1331.078125 90.894531 L 1329.660156 101.164062 L 1320.054688 105.070312 L 1311.871094 98.707031 Z M 1313.289062 88.433594 "/>
<path fill-rule="nonzero" fill="rgb(0%, 16.600934%, 98.969447%)" fill-opacity="1" d="M 1318.199219 92.253906 L 1322.042969 90.691406 L 1325.316406 93.238281 L 1324.75 97.347656 L 1320.90625 98.910156 L 1317.632812 96.363281 Z M 1318.199219 92.253906 "/>
<path fill-rule="nonzero" fill="rgb(0%, 31.100336%, 79.957645%)" fill-opacity="1" d="M 88.886719 189.195312 L 84.054688 198.371094 L 73.695312 198.773438 L 68.164062 190.003906 L 72.996094 180.828125 L 83.355469 180.425781 Z M 88.886719 189.195312 "/>
<path fill-rule="nonzero" fill="rgb(0%, 16.600934%, 98.969447%)" fill-opacity="1" d="M 82.671875 189.4375 L 80.738281 193.109375 L 76.59375 193.269531 L 74.382812 189.761719 L 76.3125 186.089844 L 80.457031 185.929688 Z M 82.671875 189.4375 "/>
<path fill-rule="nonzero" fill="rgb(0%, 31.100336%, 79.957645%)" fill-opacity="1" d="M 180.929688 180.679688 L 191.296875 180.5625 L 196.585938 189.480469 L 191.503906 198.519531 L 181.136719 198.640625 L 175.851562 189.71875 Z M 180.929688 180.679688 "/>
<path fill-rule="nonzero" fill="rgb(0%, 16.600934%, 98.969447%)" fill-opacity="1" d="M 184.101562 186.03125 L 188.25 185.984375 L 190.363281 189.550781 L 188.332031 193.167969 L 184.1875 193.214844 L 182.070312 189.648438 Z M 184.101562 186.03125 "/>
<path fill-rule="nonzero" fill="rgb(0%, 31.100336%, 79.957645%)" fill-opacity="1" d="M 294.390625 179.242188 L 303.121094 184.839844 L 302.640625 195.195312 L 293.429688 199.957031 L 284.699219 194.359375 L 285.179688 184.003906 Z M 294.390625 179.242188 "/>
<path fill-rule="nonzero" fill="rgb(0%, 16.600934%, 98.969447%)" fill-opacity="1" d="M 294.101562 185.457031 L 297.59375 187.695312 L 297.402344 191.839844 L 293.71875 193.742188 L 290.226562 191.503906 L 290.417969 187.363281 Z M 294.101562 185.457031 "/>
<path fill-rule="nonzero" fill="rgb(0%, 31.100336%, 79.957645%)" fill-opacity="1" d="M 394.429688 197.089844 L 391.53125 187.132812 L 398.703125 179.644531 L 408.773438 182.113281 L 411.671875 192.066406 L 404.5 199.554688 Z M 394.429688 197.089844 "/>
<path fill-rule="nonzero" fill="rgb(0%, 16.600934%, 98.969447%)" fill-opacity="1" d="M 398.734375 192.59375 L 397.574219 188.613281 L 400.441406 185.617188 L 404.472656 186.605469 L 405.632812 190.585938 L 402.761719 193.582031 Z M 398.734375 192.59375 "/>
<path fill-rule="nonzero" fill="rgb(0%, 31.100336%, 79.957645%)" fill-opacity="1" d="M 517.46875 195.980469 L 507.855469 199.867188 L 499.683594 193.488281 L 501.121094 183.21875 L 510.734375 179.332031 L 518.90625 185.710938 Z M 517.46875 195.980469 "/>
<path fill-rule="nonzero" fill="rgb(0%, 16.600934%, 98.969447%)" fill-opacity="1" d="M 512.5625 192.152344 L 508.71875 193.707031 L 505.449219 191.15625 L 506.027344 187.046875 L 509.871094 185.492188 L 513.140625 188.046875 Z M 512.5625 192.152344 "/>
<path fill-rule="nonzero" fill="rgb(0%, 31.100336%, 79.957645%)" fill-opacity="1" d="M 625.546875 183.75 L 626.335938 194.085938 L 617.773438 199.9375 L 608.425781 195.453125 L 607.640625 185.113281 L 616.199219 179.261719 Z M 625.546875 183.75 "/>
<path fill-rule="nonzero" fill="rgb(0%, 16.600934%, 98.969447%)" fill-opacity="1" d="M 620.410156 187.257812 L 620.726562 191.394531 L 617.300781 193.734375 L 613.5625 191.941406 L 613.25 187.804688 L 616.671875 185.464844 Z M 620.410156 187.257812 "/>
<path fill-rule="nonzero" fill="rgb(0%, 31.100336%, 79.957645%)" fill-opacity="1" d="M 732.082031 182.339844 L 734.667969 192.382812 L 727.265625 199.640625 L 717.277344 196.859375 L 714.691406 186.816406 L 722.09375 179.558594 Z M 732.082031 182.339844 "/>
<path fill-rule="nonzero" fill="rgb(0%, 16.600934%, 98.969447%)" fill-opacity="1" d="M 727.640625 186.695312 L 728.675781 190.710938 L 725.714844 193.617188 L 721.71875 192.503906 L 720.683594 188.488281 L 723.644531 185.582031 Z M 727.640625 186.695312 "/>
<path fill-rule="nonzero" fill="rgb(0%, 31.100336%, 79.957645%)" fill-opacity="1" d="M 839.785156 196.847656 L 829.800781 199.644531 L 822.386719 192.394531 L 824.957031 182.351562 L 834.941406 179.554688 L 842.355469 186.804688 Z M 839.785156 196.847656 "/>
<path fill-rule="nonzero" fill="rgb(0%, 16.600934%, 98.969447%)" fill-opacity="1" d="M 835.335938 192.5 L 831.34375 193.617188 L 828.378906 190.71875 L 829.40625 186.699219 L 833.398438 185.582031 L 836.367188 188.480469 Z M 835.335938 192.5 "/>
<path fill-rule="nonzero" fill="rgb(0%, 31.100336%, 79.957645%)" fill-opacity="1" d="M 934.714844 180.71875 L 945.082031 180.527344 L 950.429688 189.40625 L 945.414062 198.480469 L 935.046875 198.675781 L 929.695312 189.792969 Z M 934.714844 180.71875 "/>
<path fill-rule="nonzero" fill="rgb(0%, 16.600934%, 98.969447%)" fill-opacity="1" d="M 937.925781 186.046875 L 942.070312 185.96875 L 944.210938 189.523438 L 942.203125 193.152344 L 938.058594 193.230469 L 935.917969 189.675781 Z M 937.925781 186.046875 "/>
<path fill-rule="nonzero" fill="rgb(0%, 31.100336%, 79.957645%)" fill-opacity="1" d="M 1049.046875 179.3125 L 1057.3125 185.574219 L 1056.019531 195.863281 L 1046.464844 199.886719 L 1038.203125 193.625 L 1039.492188 183.339844 Z M 1049.046875 179.3125 "/>
<path fill-rule="nonzero" fill="rgb(0%, 16.600934%, 98.969447%)" fill-opacity="1" d="M 1048.273438 185.484375 L 1051.578125 187.988281 L 1051.0625 192.105469 L 1047.238281 193.714844 L 1043.933594 191.210938 L 1044.449219 187.09375 Z M 1048.273438 185.484375 "/>
<path fill-rule="nonzero" fill="rgb(0%, 31.100336%, 79.957645%)" fill-opacity="1" d="M 1157.808594 199.695312 L 1147.882812 196.691406 L 1145.523438 186.59375 L 1153.089844 179.503906 L 1163.011719 182.507812 L 1165.371094 192.605469 Z M 1157.808594 199.695312 "/>
<path fill-rule="nonzero" fill="rgb(0%, 16.600934%, 98.969447%)" fill-opacity="1" d="M 1156.390625 193.640625 L 1152.421875 192.4375 L 1151.480469 188.398438 L 1154.503906 185.5625 L 1158.472656 186.761719 L 1159.417969 190.800781 Z M 1156.390625 193.640625 "/>
<path fill-rule="nonzero" fill="rgb(0%, 31.100336%, 79.957645%)" fill-opacity="1" d="M 1252.824219 188.554688 L 1258.886719 180.144531 L 1269.203125 181.1875 L 1273.457031 190.644531 L 1267.394531 199.054688 L 1257.078125 198.011719 Z M 1252.824219 188.554688 "/>
<path fill-rule="nonzero" fill="rgb(0%, 16.600934%, 98.969447%)" fill-opacity="1" d="M 1259.015625 189.183594 L 1261.441406 185.816406 L 1265.566406 186.234375 L 1267.265625 190.019531 L 1264.84375 193.382812 L 1260.714844 192.964844 Z M 1259.015625 189.183594 "/>
<path fill-rule="nonzero" fill="rgb(0%, 31.100336%, 79.957645%)" fill-opacity="1" d="M 147.222656 284.089844 L 142.308594 293.222656 L 131.945312 293.53125 L 126.496094 284.710938 L 131.410156 275.578125 L 141.773438 275.269531 Z M 147.222656 284.089844 "/>
<path fill-rule="nonzero" fill="rgb(0%, 16.600934%, 98.969447%)" fill-opacity="1" d="M 141.003906 284.277344 L 139.039062 287.929688 L 134.894531 288.050781 L 132.714844 284.523438 L 134.679688 280.871094 L 138.824219 280.746094 Z M 141.003906 284.277344 "/>
<path fill-rule="nonzero" fill="rgb(0%, 31.100336%, 79.957645%)" fill-opacity="1" d="M 239.882812 275.140625 L 250.234375 275.730469 L 254.902344 284.988281 L 249.21875 293.660156 L 238.867188 293.070312 L 234.199219 283.8125 Z M 239.882812 275.140625 "/>
<path fill-rule="nonzero" fill="rgb(0%, 16.600934%, 98.969447%)" fill-opacity="1" d="M 242.683594 280.695312 L 246.824219 280.929688 L 248.691406 284.636719 L 246.417969 288.105469 L 242.277344 287.867188 L 240.410156 284.164062 Z M 242.683594 280.695312 "/>
<path fill-rule="nonzero" fill="rgb(0%, 31.100336%, 79.957645%)" fill-opacity="1" d="M 357.882812 275.699219 L 362.597656 284.933594 L 356.957031 293.636719 L 346.601562 293.101562 L 341.886719 283.867188 L 347.527344 275.164062 Z M 357.882812 275.699219 "/>
<path fill-rule="nonzero" fill="rgb(0%, 16.600934%, 98.969447%)" fill-opacity="1" d="M 354.5 280.917969 L 356.386719 284.613281 L 354.128906 288.09375 L 349.988281 287.878906 L 348.101562 284.1875 L 350.359375 280.707031 Z M 354.5 280.917969 "/>
<path fill-rule="nonzero" fill="rgb(0%, 31.100336%, 79.957645%)" fill-opacity="1" d="M 449.773438 282.347656 L 456.632812 274.570312 L 466.796875 276.625 L 470.097656 286.453125 L 463.238281 294.226562 L 453.074219 292.175781 Z M 449.773438 282.347656 "/>
<path fill-rule="nonzero" fill="rgb(0%, 16.600934%, 98.969447%)" fill-opacity="1" d="M 455.871094 283.578125 L 458.613281 280.46875 L 462.679688 281.289062 L 464 285.222656 L 461.257812 288.332031 L 457.191406 287.511719 Z M 455.871094 283.578125 "/>
<path fill-rule="nonzero" fill="rgb(0%, 31.100336%, 79.957645%)" fill-opacity="1" d="M 568.789062 294.703125 L 559.285156 290.558594 L 558.125 280.253906 L 566.464844 274.097656 L 575.96875 278.242188 L 577.132812 288.546875 Z M 568.789062 294.703125 "/>
<path fill-rule="nonzero" fill="rgb(0%, 16.600934%, 98.969447%)" fill-opacity="1" d="M 568.09375 288.519531 L 564.292969 286.863281 L 563.828125 282.742188 L 567.164062 280.277344 L 570.964844 281.9375 L 571.429688 286.058594 Z M 568.09375 288.519531 "/>
<path fill-rule="nonzero" fill="rgb(0%, 31.100336%, 79.957645%)" fill-opacity="1" d="M 673.792969 274.144531 L 683.4375 277.949219 L 684.964844 288.203125 L 676.851562 294.65625 L 667.203125 290.851562 L 665.675781 280.597656 Z M 673.792969 274.144531 "/>
<path fill-rule="nonzero" fill="rgb(0%, 16.600934%, 98.969447%)" fill-opacity="1" d="M 674.707031 280.296875 L 678.566406 281.820312 L 679.179688 285.921875 L 675.933594 288.503906 L 672.074219 286.980469 L 671.460938 282.878906 Z M 674.707031 280.296875 "/>
<path fill-rule="nonzero" fill="rgb(0%, 31.100336%, 79.957645%)" fill-opacity="1" d="M 780.09375 274.453125 L 790.167969 276.894531 L 793.089844 286.84375 L 785.933594 294.347656 L 775.855469 291.902344 L 772.9375 281.957031 Z M 780.09375 274.453125 "/>
<path fill-rule="nonzero" fill="rgb(0%, 16.600934%, 98.969447%)" fill-opacity="1" d="M 781.84375 280.421875 L 785.875 281.398438 L 787.042969 285.378906 L 784.179688 288.378906 L 780.152344 287.402344 L 778.980469 283.421875 Z M 781.84375 280.421875 "/>
<path fill-rule="nonzero" fill="rgb(0%, 31.100336%, 79.957645%)" fill-opacity="1" d="M 899.332031 278.648438 L 900 288.996094 L 891.371094 294.746094 L 882.078125 290.152344 L 881.410156 279.804688 L 890.039062 274.050781 Z M 899.332031 278.648438 "/>
<path fill-rule="nonzero" fill="rgb(0%, 16.600934%, 98.969447%)" fill-opacity="1" d="M 894.15625 282.097656 L 894.421875 286.238281 L 890.972656 288.539062 L 887.253906 286.699219 L 886.988281 282.5625 L 890.4375 280.261719 Z M 894.15625 282.097656 "/>
<path fill-rule="nonzero" fill="rgb(0%, 31.100336%, 79.957645%)" fill-opacity="1" d="M 1006.925781 290.300781 L 997.550781 294.734375 L 989.023438 288.835938 L 989.871094 278.5 L 999.242188 274.066406 L 1007.769531 279.964844 Z M 1006.925781 290.300781 "/>
<path fill-rule="nonzero" fill="rgb(0%, 16.600934%, 98.969447%)" fill-opacity="1" d="M 1001.808594 286.757812 L 998.058594 288.535156 L 994.648438 286.175781 L 994.988281 282.039062 L 998.734375 280.265625 L 1002.144531 282.625 Z M 1001.808594 286.757812 "/>
<path fill-rule="nonzero" fill="rgb(0%, 31.100336%, 79.957645%)" fill-opacity="1" d="M 1110.039062 293.988281 L 1099.761719 292.613281 L 1095.8125 283.027344 L 1102.140625 274.8125 L 1112.417969 276.1875 L 1116.367188 285.773438 Z M 1110.039062 293.988281 "/>
<path fill-rule="nonzero" fill="rgb(0%, 16.600934%, 98.969447%)" fill-opacity="1" d="M 1107.667969 288.234375 L 1103.558594 287.6875 L 1101.980469 283.851562 L 1104.511719 280.566406 L 1108.621094 281.113281 L 1110.199219 284.949219 Z M 1107.667969 288.234375 "/>
<path fill-rule="nonzero" fill="rgb(0%, 31.100336%, 79.957645%)" fill-opacity="1" d="M 1220.492188 292.304688 L 1210.289062 294.164062 L 1203.582031 286.257812 L 1207.074219 276.492188 L 1217.273438 274.636719 L 1223.984375 282.542969 Z M 1220.492188 292.304688 "/>
<path fill-rule="nonzero" fill="rgb(0%, 16.600934%, 98.969447%)" fill-opacity="1" d="M 1216.464844 287.5625 L 1212.386719 288.304688 L 1209.703125 285.140625 L 1211.097656 281.238281 L 1215.179688 280.496094 L 1217.863281 283.65625 Z M 1216.464844 287.5625 "/>
<path fill-rule="nonzero" fill="rgb(0%, 31.100336%, 79.957645%)" fill-opacity="1" d="M 1323.582031 294.550781 L 1313.734375 291.300781 L 1311.628906 281.148438 L 1319.367188 274.246094 L 1329.214844 277.5 L 1331.320312 287.652344 Z M 1323.582031 294.550781 "/>
<path fill-rule="nonzero" fill="rgb(0%, 16.600934%, 98.969447%)" fill-opacity="1" d="M 1322.316406 288.460938 L 1318.378906 287.160156 L 1317.535156 283.097656 L 1320.632812 280.339844 L 1324.570312 281.640625 L 1325.414062 285.699219 Z M 1322.316406 288.460938 "/>
<path fill-rule="nonzero" fill="rgb(0%, 31.100336%, 79.957645%)" fill-opacity="1" d="M 88.730469 381.042969 L 82.03125 388.957031 L 71.828125 387.113281 L 68.320312 377.355469 L 75.019531 369.441406 L 85.222656 371.285156 Z M 88.730469 381.042969 "/>
<path fill-rule="nonzero" fill="rgb(0%, 16.600934%, 98.969447%)" fill-opacity="1" d="M 82.605469 379.9375 L 79.925781 383.101562 L 75.847656 382.367188 L 74.445312 378.460938 L 77.125 375.296875 L 81.207031 376.035156 Z M 82.605469 379.9375 "/>
<path fill-rule="nonzero" fill="rgb(0%, 31.100336%, 79.957645%)" fill-opacity="1" d="M 176.433594 382.636719 L 178.351562 372.445312 L 188.136719 369.011719 L 196 375.765625 L 194.085938 385.957031 L 184.300781 389.390625 Z M 176.433594 382.636719 "/>
<path fill-rule="nonzero" fill="rgb(0%, 16.600934%, 98.969447%)" fill-opacity="1" d="M 182.304688 380.574219 L 183.070312 376.496094 L 186.984375 375.125 L 190.132812 377.824219 L 189.363281 381.902344 L 185.449219 383.277344 Z M 182.304688 380.574219 "/>
<path fill-rule="nonzero" fill="rgb(0%, 31.100336%, 79.957645%)" fill-opacity="1" d="M 285.8125 385.675781 L 284.253906 375.425781 L 292.351562 368.949219 L 302.007812 372.726562 L 303.566406 382.976562 L 295.46875 389.449219 Z M 285.8125 385.675781 "/>
<path fill-rule="nonzero" fill="rgb(0%, 16.600934%, 98.969447%)" fill-opacity="1" d="M 290.671875 381.789062 L 290.046875 377.691406 L 293.285156 375.101562 L 297.148438 376.609375 L 297.773438 380.710938 L 294.535156 383.300781 Z M 290.671875 381.789062 "/>
<path fill-rule="nonzero" fill="rgb(0%, 31.100336%, 79.957645%)" fill-opacity="1" d="M 404.664062 389.105469 L 394.554688 386.804688 L 391.492188 376.898438 L 398.542969 369.292969 L 408.652344 371.597656 L 411.710938 381.503906 Z M 404.664062 389.105469 "/>
<path fill-rule="nonzero" fill="rgb(0%, 16.600934%, 98.969447%)" fill-opacity="1" d="M 402.828125 383.164062 L 398.78125 382.242188 L 397.558594 378.277344 L 400.378906 375.238281 L 404.421875 376.160156 L 405.648438 380.121094 Z M 402.828125 383.164062 "/>
<path fill-rule="nonzero" fill="rgb(0%, 31.100336%, 79.957645%)" fill-opacity="1" d="M 518.378906 384.199219 L 509.507812 389.566406 L 500.421875 384.566406 L 500.210938 374.203125 L 509.082031 368.832031 L 518.164062 373.832031 Z M 518.378906 384.199219 "/>
<path fill-rule="nonzero" fill="rgb(0%, 16.600934%, 98.969447%)" fill-opacity="1" d="M 512.929688 381.199219 L 509.378906 383.347656 L 505.746094 381.347656 L 505.660156 377.199219 L 509.210938 375.054688 L 512.84375 377.054688 Z M 512.929688 381.199219 "/>
<path fill-rule="nonzero" fill="rgb(0%, 31.100336%, 79.957645%)" fill-opacity="1" d="M 616.621094 368.835938 L 625.777344 373.699219 L 626.144531 384.0625 L 617.355469 389.5625 L 608.195312 384.699219 L 607.828125 374.335938 Z M 616.621094 368.835938 "/>
<path fill-rule="nonzero" fill="rgb(0%, 16.600934%, 98.969447%)" fill-opacity="1" d="M 616.839844 375.054688 L 620.503906 377 L 620.648438 381.144531 L 617.132812 383.34375 L 613.472656 381.398438 L 613.324219 377.253906 Z M 616.839844 375.054688 "/>
<path fill-rule="nonzero" fill="rgb(0%, 31.100336%, 79.957645%)" fill-opacity="1" d="M 734.871094 381.097656 L 728.132812 388.976562 L 717.9375 387.078125 L 714.484375 377.300781 L 721.226562 369.421875 L 731.421875 371.320312 Z M 734.871094 381.097656 "/>
<path fill-rule="nonzero" fill="rgb(0%, 16.600934%, 98.969447%)" fill-opacity="1" d="M 728.757812 379.960938 L 726.058594 383.109375 L 721.984375 382.351562 L 720.601562 378.441406 L 723.296875 375.289062 L 727.375 376.046875 Z M 728.757812 379.960938 "/>
<path fill-rule="nonzero" fill="rgb(0%, 31.100336%, 79.957645%)" fill-opacity="1" d="M 835.179688 369.21875 L 842.421875 376.640625 L 839.609375 386.625 L 829.5625 389.179688 L 822.324219 381.757812 L 825.132812 371.777344 Z M 835.179688 369.21875 "/>
<path fill-rule="nonzero" fill="rgb(0%, 16.600934%, 98.969447%)" fill-opacity="1" d="M 833.496094 375.207031 L 836.390625 378.175781 L 835.265625 382.167969 L 831.25 383.191406 L 828.351562 380.222656 L 829.476562 376.230469 Z M 833.496094 375.207031 "/>
<path fill-rule="nonzero" fill="rgb(0%, 31.100336%, 79.957645%)" fill-opacity="1" d="M 940.050781 389.570312 L 931.078125 384.375 L 931.089844 374.003906 L 940.074219 368.832031 L 949.050781 374.027344 L 949.039062 384.394531 Z M 940.050781 389.570312 "/>
<path fill-rule="nonzero" fill="rgb(0%, 16.600934%, 98.969447%)" fill-opacity="1" d="M 940.058594 383.347656 L 936.46875 381.269531 L 936.472656 377.121094 L 940.070312 375.050781 L 943.660156 377.128906 L 943.652344 381.277344 Z M 940.058594 383.347656 "/>
<path fill-rule="nonzero" fill="rgb(0%, 31.100336%, 79.957645%)" fill-opacity="1" d="M 1055.539062 372.347656 L 1057.582031 382.515625 L 1049.796875 389.367188 L 1039.972656 386.050781 L 1037.933594 375.882812 L 1045.714844 369.035156 Z M 1055.539062 372.347656 "/>
<path fill-rule="nonzero" fill="rgb(0%, 16.600934%, 98.969447%)" fill-opacity="1" d="M 1050.871094 376.460938 L 1051.6875 380.527344 L 1048.574219 383.265625 L 1044.644531 381.941406 L 1043.828125 377.875 L 1046.941406 375.132812 Z M 1050.871094 376.460938 "/>
<path fill-rule="nonzero" fill="rgb(0%, 31.100336%, 79.957645%)" fill-opacity="1" d="M 1150.144531 370.289062 L 1160.515625 370.152344 L 1165.816406 379.0625 L 1160.75 388.109375 L 1150.382812 388.246094 L 1145.082031 379.335938 Z M 1150.144531 370.289062 "/>
<path fill-rule="nonzero" fill="rgb(0%, 16.600934%, 98.969447%)" fill-opacity="1" d="M 1153.328125 375.636719 L 1157.476562 375.582031 L 1159.597656 379.144531 L 1157.570312 382.765625 L 1153.421875 382.820312 L 1151.300781 379.253906 Z M 1153.328125 375.636719 "/>
<path fill-rule="nonzero" fill="rgb(0%, 31.100336%, 79.957645%)" fill-opacity="1" d="M 1265.589844 369.125 L 1273.089844 376.28125 L 1270.644531 386.355469 L 1260.695312 389.277344 L 1253.191406 382.117188 L 1255.640625 372.042969 Z M 1265.589844 369.125 "/>
<path fill-rule="nonzero" fill="rgb(0%, 16.600934%, 98.969447%)" fill-opacity="1" d="M 1264.121094 375.167969 L 1267.121094 378.03125 L 1266.140625 382.0625 L 1262.164062 383.230469 L 1259.160156 380.367188 L 1260.140625 376.335938 Z M 1264.121094 375.167969 "/>
</svg>
